<svg width="14" height="10" viewBox="0 0 14 10" fill="none" xmlns="http://www.w3.org/2000/svg">
<path d="M7 9.80071C5.852 9.81471 4.7159 9.56691 3.6778 9.07621C2.87329 8.68365 2.15087 8.14153 1.5491 7.47881C0.911715 6.79358 0.409842 5.99386 0.0699999 5.12191L0 4.90071L0.0735 4.67951C0.413556 3.8083 0.914352 3.00878 1.5498 2.32261C2.15134 1.65993 2.87353 1.11781 3.6778 0.725205C4.7157 0.234217 5.85191 -0.0135668 7 0.00070543C8.148 -0.0132946 9.2841 0.234505 10.3222 0.725205C11.1272 1.11721 11.8489 1.65971 12.4509 2.32261C13.0893 3.00721 13.5919 3.80661 13.93 4.67951L14 4.90071L13.9265 5.12191C13.3904 6.51747 12.4385 7.71467 11.1997 8.5515C9.96082 9.38833 8.49481 9.8244 7 9.80071V9.80071ZM7 1.40071C5.83545 1.36421 4.68679 1.67836 3.7029 2.30242C2.71901 2.92648 1.94524 3.83168 1.4819 4.90071C1.94517 5.96979 2.71891 6.87505 3.70282 7.49912C4.68673 8.12319 5.83544 8.43729 7 8.40071C8.16453 8.4371 9.31315 8.12292 10.297 7.49887C11.2809 6.87482 12.0547 5.96967 12.5181 4.90071C12.0554 3.83122 11.2818 2.92558 10.2977 2.30143C9.31369 1.67727 8.1647 1.36345 7 1.40071V1.40071ZM7 7.00071C6.5103 7.00395 6.03467 6.83708 5.65434 6.5286C5.27401 6.22012 5.01257 5.78917 4.91468 5.30935C4.81678 4.82953 4.88851 4.3306 5.1176 3.89779C5.34669 3.46497 5.71894 3.12512 6.17077 2.93627C6.6226 2.74742 7.12597 2.72129 7.59492 2.86235C8.06387 3.0034 8.46931 3.30289 8.74198 3.70966C9.01465 4.11643 9.13765 4.60525 9.08996 5.09263C9.04227 5.58 8.82685 6.03571 8.4805 6.38191C8.28688 6.5778 8.05635 6.73335 7.80222 6.83957C7.54809 6.94579 7.27543 7.00055 7 7.00071V7.00071Z" fill="white"/>
</svg>
