<svg width="15" height="14" viewBox="0 0 15 14" fill="none" xmlns="http://www.w3.org/2000/svg">
<path d="M14.3151 8.77952L13.234 7.90445C13.2852 7.60756 13.3116 7.30441 13.3116 7.00127C13.3116 6.69812 13.2852 6.39497 13.234 6.09808L14.3151 5.22302C14.3967 5.15693 14.455 5.06891 14.4825 4.97066C14.5099 4.8724 14.5051 4.76858 14.4686 4.67298L14.4538 4.63235C14.1562 3.84484 13.7105 3.1148 13.1383 2.47752L13.1086 2.4447C13.0392 2.36743 12.9467 2.31189 12.8432 2.28539C12.7398 2.25889 12.6303 2.26268 12.5292 2.29625L11.1873 2.74785C10.6922 2.36345 10.1392 2.0603 9.54173 1.84778L9.2826 0.519567C9.26305 0.419626 9.21184 0.327683 9.13578 0.255952C9.05971 0.184221 8.9624 0.136098 8.85675 0.117977L8.81219 0.110164C7.95225 -0.0367213 7.04775 -0.0367213 6.18781 0.110164L6.14325 0.117977C6.0376 0.136098 5.94029 0.184221 5.86422 0.255952C5.78816 0.327683 5.73695 0.419626 5.7174 0.519567L5.45662 1.85403C4.86388 2.06659 4.3119 2.36958 3.82257 2.75097L2.47076 2.29625C2.36969 2.26241 2.26014 2.25849 2.15666 2.285C2.05317 2.31152 1.96066 2.36722 1.89142 2.4447L1.86171 2.47752C1.2902 3.11525 0.844599 3.84517 0.546219 4.63235L0.531364 4.67298C0.457089 4.86831 0.518159 5.08707 0.684865 5.22302L1.77918 6.10746C1.72802 6.40123 1.70326 6.70125 1.70326 6.9997C1.70326 7.29972 1.72802 7.59975 1.77918 7.89195L0.684865 8.77639C0.603321 8.84248 0.544959 8.9305 0.517539 9.02875C0.490119 9.12701 0.494941 9.23083 0.531364 9.32643L0.546219 9.36706C0.844969 10.1546 1.28732 10.8812 1.86171 11.5219L1.89142 11.5547C1.96083 11.632 2.05335 11.6875 2.15677 11.714C2.26019 11.7405 2.36966 11.7367 2.47076 11.7032L3.82257 11.2484C4.31443 11.6313 4.86407 11.9344 5.45662 12.1454L5.7174 13.4798C5.73695 13.5798 5.78816 13.6717 5.86422 13.7435C5.94029 13.8152 6.0376 13.8633 6.14325 13.8814L6.18781 13.8892C7.05565 14.0369 7.94435 14.0369 8.81219 13.8892L8.85675 13.8814C8.9624 13.8633 9.05971 13.8152 9.13578 13.7435C9.21184 13.6717 9.26305 13.5798 9.2826 13.4798L9.54173 12.1516C10.139 11.9397 10.695 11.6355 11.1873 11.2516L12.5292 11.7032C12.6303 11.737 12.7399 11.7409 12.8433 11.7144C12.9468 11.6879 13.0393 11.6322 13.1086 11.5547L13.1383 11.5219C13.7127 10.8797 14.155 10.1546 14.4538 9.36706L14.4686 9.32643C14.5429 9.13423 14.4818 8.91546 14.3151 8.77952V8.77952ZM12.0621 6.28247C12.1034 6.51842 12.1249 6.76063 12.1249 7.00283C12.1249 7.24503 12.1034 7.48724 12.0621 7.72319L11.9532 8.3498L13.1862 9.3483C12.9992 9.75597 12.7633 10.1419 12.483 10.4984L10.9513 9.98429L10.433 10.3874C10.0386 10.6937 9.5995 10.9344 9.12414 11.1031L8.49528 11.3266L8.19983 12.8423C7.73367 12.8923 7.26303 12.8923 6.79686 12.8423L6.50142 11.3234L5.87751 11.0969C5.4071 10.9281 4.9697 10.6875 4.57852 10.3828L4.06025 9.97804L2.51863 10.4968C2.23804 10.139 2.00366 9.75302 1.81549 9.34674L3.06166 8.33886L2.95438 7.71382C2.91476 7.48099 2.89331 7.24035 2.89331 7.00283C2.89331 6.76375 2.91311 6.52467 2.95438 6.29184L3.06166 5.6668L1.81549 4.65892C2.00201 4.25108 2.23804 3.86667 2.51863 3.50884L4.06025 4.02762L4.57852 3.62291C4.9697 3.3182 5.4071 3.07756 5.87751 2.9088L6.50307 2.68534L6.79851 1.16649C7.26232 1.11648 7.73603 1.11648 8.20149 1.16649L8.49693 2.68222L9.1258 2.90567C9.5995 3.07443 10.0402 3.31507 10.4347 3.62134L10.953 4.0245L12.4847 3.5104C12.7653 3.86824 12.9996 4.2542 13.1878 4.66048L11.9548 5.65899L12.0621 6.28247ZM7.50165 4.09638C5.89731 4.09638 4.59668 5.32771 4.59668 6.84657C4.59668 8.36542 5.89731 9.59676 7.50165 9.59676C9.10599 9.59676 10.4066 8.36542 10.4066 6.84657C10.4066 5.32771 9.10599 4.09638 7.50165 4.09638ZM8.80889 8.08416C8.63743 8.24694 8.43367 8.37603 8.20932 8.46399C7.98498 8.55195 7.74447 8.59705 7.50165 8.59669C7.00814 8.59669 6.54433 8.41387 6.19441 8.08416C6.02246 7.92183 5.88611 7.72893 5.7932 7.51654C5.70029 7.30414 5.65265 7.07645 5.65303 6.84657C5.65303 6.37935 5.84615 5.94026 6.19441 5.60898C6.54433 5.27771 7.00814 5.09645 7.50165 5.09645C7.99517 5.09645 8.45897 5.27771 8.80889 5.60898C8.98084 5.7713 9.11719 5.96421 9.2101 6.1766C9.30301 6.38899 9.35065 6.61668 9.35027 6.84657C9.35027 7.31379 9.15716 7.75288 8.80889 8.08416Z" fill="#1890FF"/>
</svg>
