<svg width="92" height="54" viewBox="0 0 92 54" fill="none" xmlns="http://www.w3.org/2000/svg">
<g clip-path="url(#clip0_31_1632)">
<path fill-rule="evenodd" clip-rule="evenodd" d="M6.25065 0.5L4.68701 4.78311H26.3556L27.9192 0.5H6.25065ZM3.90471 6.92369L2.34107 11.2058H24.0096L25.5732 6.92369H3.90471ZM1.56364 13.3474L0 17.6295H21.6685L23.2312 13.3474H1.56364Z" fill="white"/>
<mask id="mask0_31_1632" style="mask-type:alpha" maskUnits="userSpaceOnUse" x="32" y="7" width="60" height="27">
<path d="M32.5097 33.2428H91.8248V7.0061H32.5097V33.2428Z" fill="white"/>
</mask>
<g mask="url(#mask0_31_1632)">
<path fill-rule="evenodd" clip-rule="evenodd" d="M46.0659 19.2618V19.3521C47.0562 19.7156 48.0021 20.3512 48.4977 20.7594C50.0289 22.0305 50.7049 23.7098 50.7049 25.8886C50.7049 29.4757 48.813 32.0627 45.7053 32.88C44.7594 33.1521 43.7691 33.2434 41.9216 33.2434H32.5097V7.0061H40.8417C42.5532 7.0061 43.7238 7.09647 44.7594 7.36858C47.7775 8.18589 49.759 10.2743 49.759 13.5873C49.759 15.358 49.1283 16.8565 48.0928 17.8546C47.6425 18.3084 47.0119 18.8536 46.0659 19.2618ZM37.7339 22.0305V28.9305H41.3373C42.4172 28.9305 43.4085 28.8401 44.1297 28.1588C44.85 27.4776 45.1653 26.6156 45.1653 25.4805C45.1653 24.6185 44.9397 23.8012 44.4894 23.2113C43.7238 22.2579 42.7779 22.0305 41.157 22.0305H37.7339ZM37.6886 17.4911H40.616C41.5166 17.4911 41.9669 17.4911 42.4172 17.3551C43.6341 16.9916 44.3997 15.9032 44.3997 14.4046C44.3997 12.6349 43.5888 11.8623 42.4172 11.4998C41.9216 11.3638 41.427 11.3181 40.4357 11.3181H37.6886V17.4911ZM58.5412 33.2434V11.4085H51.0202V7.0061H71.9181L70.4323 11.4085H63.7655V33.2434H58.5412ZM73.539 33.2434V7.0061H90.474L88.9881 11.4085H78.7189V17.219H82.9076C86.2853 17.219 88.0421 18.0363 89.258 19.08C90.204 19.8974 91.8248 21.7127 91.8248 25.2997C91.8248 28.8401 90.1586 30.7915 88.7624 31.7906C87.1416 32.9247 85.43 33.2434 81.9617 33.2434H73.539ZM78.7189 28.8401H82.6376C84.1235 28.8401 85.0241 28.4766 85.6547 27.6593C85.97 27.2512 86.4203 26.5242 86.4203 25.1627C86.4203 23.8012 85.97 22.8478 85.0694 22.1666C84.5294 21.7584 83.8082 21.532 82.5923 21.532H78.7189V28.8401Z" fill="white"/>
</g>
<path d="M32 37.5C32 36.3954 32.8954 35.5 34 35.5H76.1097C77.5073 35.5 78.4739 36.8969 77.9813 38.2049L74.9685 46.2049C74.6751 46.9841 73.9295 47.5 73.0968 47.5H34C32.8954 47.5 32 46.6046 32 45.5V37.5Z" fill="#1890FF"/>
<path d="M37.6592 45.235L37.4715 45.1687L37.3001 45.0942L37.1696 45.0279L36.9247 44.8955L36.7942 44.8209L36.5738 44.6636C36.4188 44.5394 36.28 44.4151 36.1413 44.2826C35.4102 43.5349 35 42.5243 35 41.4711C35 40.4178 35.4102 39.4072 36.1413 38.6595C36.2779 38.5265 36.4223 38.402 36.5738 38.2868C36.6439 38.2297 36.7175 38.1772 36.7942 38.1295C36.9557 38.023 37.1248 37.9289 37.3001 37.8479L37.4715 37.7651L37.6592 37.7071C38.4722 37.4312 39.3515 37.4312 40.1645 37.7071L40.3522 37.7651L40.5236 37.8479C40.7006 37.9253 40.87 38.0196 41.0296 38.1295L41.2581 38.2868C41.4069 38.4021 41.5486 38.5266 41.6824 38.6595L40.3685 39.9928C40.2757 39.9007 40.1746 39.8175 40.0666 39.7444L39.985 39.6864H39.9279L39.8463 39.6367L39.683 39.5705H39.4382C39.2698 39.5303 39.0971 39.5109 38.9241 39.5125C38.751 39.5099 38.5783 39.5293 38.41 39.5705H38.1896L38.0346 39.6367H37.904L37.8306 39.6864L37.7408 39.7444C37.7069 39.7645 37.6742 39.7866 37.6429 39.8106C37.4227 40.0065 37.2463 40.2478 37.1254 40.5185C37.0045 40.7891 36.942 41.0828 36.942 41.38C36.942 41.6771 37.0045 41.9708 37.1254 42.2415C37.2463 42.5121 37.4227 42.7534 37.6429 42.9493L37.7408 43.0321L37.8306 43.0901L38.0591 43.2226L38.2141 43.3054C38.297 43.3352 38.3814 43.3601 38.4671 43.3799C38.6347 43.4267 38.8074 43.4518 38.9812 43.4545C39.1549 43.4506 39.3275 43.4256 39.4953 43.3799L39.7402 43.3054L39.9034 43.2226L40.1237 43.0901L40.2788 42.9741L40.4257 42.8334V41.4752H41.6008C41.6904 41.4741 41.7794 41.4911 41.8625 41.5251C41.9456 41.5592 42.0213 41.6096 42.085 41.6736C42.1488 41.7375 42.1994 41.8136 42.234 41.8976C42.2685 41.9815 42.2863 42.0716 42.2863 42.1626V42.9162C42.2901 43.4208 42.0963 43.9063 41.7477 44.2661C41.6171 44.3986 41.4702 44.5228 41.3233 44.647L41.0948 44.8044L40.9724 44.8706C40.8918 44.9241 40.8073 44.9712 40.7194 45.0114C40.6794 45.04 40.6354 45.0623 40.5889 45.0776L40.4338 45.1439L40.2461 45.2101C39.4332 45.486 38.5538 45.486 37.7408 45.2101L37.6592 45.235Z" fill="white"/>
<path d="M46.1708 37.9473C46.2213 37.8201 46.3081 37.7111 46.42 37.6344C46.532 37.5576 46.6641 37.5166 46.7992 37.5167C46.9309 37.5176 47.0596 37.5562 47.1708 37.628C47.2819 37.6997 47.3709 37.8018 47.4275 37.9225L50.8877 45.442H48.9536L48.1946 43.7857H45.4037L44.6529 45.442H42.727L46.1708 37.9473ZM47.3867 42.0301L46.8155 40.7713L46.2361 42.0301H47.3867Z" fill="white"/>
<path d="M51.8833 37.5001H53.5562C53.5909 37.501 53.625 37.5096 53.656 37.5254C53.687 37.5411 53.7142 37.5636 53.7358 37.5912L55.8494 40.0756L57.9711 37.5912C57.9948 37.5618 58.0247 37.5384 58.0587 37.5226C58.0926 37.5068 58.1297 37.4991 58.167 37.5001H59.7991V45.442H57.9467V40.4731L57.0653 41.5249L56.3472 42.353C56.2821 42.4272 56.2023 42.4866 56.113 42.5273C56.0236 42.568 55.9269 42.589 55.829 42.589C55.7311 42.589 55.6343 42.568 55.545 42.5273C55.4557 42.4866 55.3758 42.4272 55.3108 42.353L53.6786 40.4649V45.4337H51.8261L51.8833 37.5001Z" fill="white"/>
<path d="M61.3007 37.5001H65.2831C65.4649 37.5001 65.6393 37.5734 65.7678 37.7038C65.8964 37.8343 65.9686 38.0112 65.9686 38.1957V39.3883H63.1287V40.5311H65.936V42.4193H63.1287V43.5621H65.936V45.442H61.2681L61.3007 37.5001Z" fill="white"/>
<path d="M67.2091 43.5953H69.6083C69.7082 43.608 69.8097 43.5994 69.9062 43.5702C70.0027 43.541 70.0922 43.4917 70.169 43.4255C70.2457 43.3593 70.308 43.2776 70.352 43.1857C70.396 43.0937 70.4206 42.9935 70.4244 42.8913V42.8168C70.4241 42.719 70.4032 42.6225 70.3632 42.5335C70.3232 42.4446 70.2649 42.3653 70.1923 42.301C70.1197 42.2368 70.0344 42.189 69.9421 42.1608C69.8499 42.1326 69.7528 42.1248 69.6573 42.1377H69.5838C69.1193 42.1629 68.6584 42.042 68.2641 41.7915C67.8697 41.541 67.5612 41.1732 67.3804 40.7381C67.2797 40.4742 67.2298 40.193 67.2335 39.91C67.2357 39.2833 67.4825 38.683 67.92 38.2406C68.3575 37.7982 68.9499 37.5498 69.5675 37.5498H71.2894C71.4706 37.5519 71.6437 37.6259 71.7718 37.7559C71.8999 37.8859 71.9728 38.0616 71.9749 38.2454V39.3469H69.5838C69.1431 39.3469 68.7677 39.4628 68.7677 39.91V39.9928C68.7677 40.4235 69.135 40.6139 69.5838 40.6139H69.6573C70.1302 40.5714 70.6035 40.6911 71.0015 40.9539C71.3995 41.2166 71.6991 41.6072 71.8525 42.0632C71.9475 42.3288 71.9972 42.6088 71.9994 42.8913C72.0137 43.5468 71.7796 44.1828 71.3453 44.6682C70.911 45.1536 70.3097 45.4514 69.6654 45.5H67.2172L67.2091 43.5953Z" fill="white"/>
</g>
<defs>
<clipPath id="clip0_31_1632">
<rect width="92" height="53" fill="white" transform="translate(0 0.5)"/>
</clipPath>
</defs>
</svg>
