<svg width="48" height="36" viewBox="0 0 48 36" fill="none" xmlns="http://www.w3.org/2000/svg">
<path fill-rule="evenodd" clip-rule="evenodd" d="M22.138 7.81498C22.5859 7.68062 23.059 7.65282 23.5196 7.73382C23.9802 7.81481 24.4154 8.00235 24.7906 8.28146C25.1658 8.56058 25.4706 8.92354 25.6805 9.34138C25.8905 9.75921 25.9999 10.2204 26 10.688V25.312C25.9999 25.7796 25.8905 26.2408 25.6805 26.6586C25.4706 27.0764 25.1658 27.4394 24.7906 27.7185C24.4154 27.9976 23.9802 28.1852 23.5196 28.2662C23.059 28.3471 22.5859 28.3194 22.138 28.185L16.138 26.385C15.5201 26.1996 14.9784 25.82 14.5933 25.3025C14.2082 24.785 14.0001 24.1571 14 23.512V12.488C14.0001 11.8429 14.2082 11.215 14.5933 10.6975C14.9784 10.1799 15.5201 9.80034 16.138 9.61498L22.138 7.81498ZM27 9.99998C27 9.73477 27.1054 9.48041 27.2929 9.29288C27.4804 9.10534 27.7348 8.99998 28 8.99998H31C31.7956 8.99998 32.5587 9.31606 33.1213 9.87866C33.6839 10.4413 34 11.2043 34 12V13C34 13.2652 33.8946 13.5196 33.7071 13.7071C33.5196 13.8946 33.2652 14 33 14C32.7348 14 32.4804 13.8946 32.2929 13.7071C32.1054 13.5196 32 13.2652 32 13V12C32 11.7348 31.8946 11.4804 31.7071 11.2929C31.5196 11.1053 31.2652 11 31 11H28C27.7348 11 27.4804 10.8946 27.2929 10.7071C27.1054 10.5196 27 10.2652 27 9.99998ZM33 22C33.2652 22 33.5196 22.1053 33.7071 22.2929C33.8946 22.4804 34 22.7348 34 23V24C34 24.7956 33.6839 25.5587 33.1213 26.1213C32.5587 26.6839 31.7956 27 31 27H28C27.7348 27 27.4804 26.8946 27.2929 26.7071C27.1054 26.5196 27 26.2652 27 26C27 25.7348 27.1054 25.4804 27.2929 25.2929C27.4804 25.1053 27.7348 25 28 25H31C31.2652 25 31.5196 24.8946 31.7071 24.7071C31.8946 24.5196 32 24.2652 32 24V23C32 22.7348 32.1054 22.4804 32.2929 22.2929C32.4804 22.1053 32.7348 22 33 22ZM21 17C20.7348 17 20.4804 17.1053 20.2929 17.2929C20.1054 17.4804 20 17.7348 20 18C20 18.2652 20.1054 18.5196 20.2929 18.7071C20.4804 18.8946 20.7348 19 21 19H21.001C21.2662 19 21.5206 18.8946 21.7081 18.7071C21.8956 18.5196 22.001 18.2652 22.001 18C22.001 17.7348 21.8956 17.4804 21.7081 17.2929C21.5206 17.1053 21.2662 17 21.001 17H21Z" fill="white"/>
<path d="M28 18H33M33 18L31 16M33 18L31 20" stroke="white" stroke-width="2" stroke-linecap="round" stroke-linejoin="round"/>
</svg>
