<svg width="14" height="14" viewBox="0 0 14 14" fill="none" xmlns="http://www.w3.org/2000/svg">
<rect width="14" height="14" rx="7" fill="url(#paint0_linear_31_7396)"/>
<path d="M4 7.61187C4.00216 7.42709 4.07653 7.25048 4.2072 7.11981C4.33787 6.98914 4.51448 6.91477 4.69927 6.91261H6.97189C7.10843 6.91514 7.24403 6.88941 7.37015 6.83704C7.49627 6.78467 7.61019 6.70679 7.70478 6.6083C7.79937 6.5098 7.87258 6.39281 7.9198 6.26467C7.96702 6.13653 7.98724 6.00002 7.97918 5.86369C7.96629 5.60164 7.85248 5.35475 7.66161 5.17474C7.47073 4.99473 7.21761 4.89556 6.95525 4.89803H4V3.00001H6.94692C7.71978 2.99777 8.46224 3.30095 9.01262 3.84354C9.56301 4.38613 9.87674 5.12418 9.88552 5.897C9.88646 6.4451 9.73009 6.98197 9.43497 7.44383C9.13984 7.9057 8.71836 8.27317 8.22059 8.50261L10.718 11H8.07907L5.91467 8.8356V11H4.01665L4 7.61187Z" fill="white"/>
<defs>
<linearGradient id="paint0_linear_31_7396" x1="-1.04308e-07" y1="14" x2="14.9243" y2="12.9335" gradientUnits="userSpaceOnUse">
<stop stop-color="#096DD9"/>
<stop offset="1" stop-color="#40A9FF"/>
</linearGradient>
</defs>
</svg>
